<?xml version="1.0" encoding="utf-8"?>
<!-- Generator: Adobe Illustrator 19.0.0, SVG Export Plug-In . SVG Version: 6.00 Build 0)  -->
<svg version="1.1" id="Capa_1" xmlns="http://www.w3.org/2000/svg" xmlns:xlink="http://www.w3.org/1999/xlink" x="0px" y="0px"
	 viewBox="0 0 200 82" style="enable-background:new 0 0 200 82;" xml:space="preserve">
<style type="text/css">
	.st0{fill:#FFFFFF;}
</style>
<g id="XMLID_48_">
	<path id="XMLID_49_" class="st0" d="M27.3,27.9c0,3.9-0.9,7.1-2.7,9.5c-1.8,2.4-4.2,3.6-7.2,3.6c-2.6,0-4.7-0.9-6.3-2.7v12.1H4.3
		V14.9h6.3l0.2,2.5c1.7-2,3.8-3,6.5-3c3.2,0,5.6,1.2,7.4,3.5s2.6,5.5,2.6,9.6V27.9z M20.5,27.4c0-2.4-0.4-4.2-1.3-5.5
		c-0.8-1.3-2.1-1.9-3.7-1.9c-2.1,0-3.6,0.8-4.4,2.5v10.5c0.8,1.7,2.3,2.5,4.5,2.5C18.8,35.4,20.5,32.7,20.5,27.4z"/>
	<path id="XMLID_52_" class="st0" d="M34.1,8.3c0-1,0.3-1.9,1-2.5c0.7-0.7,1.6-1,2.8-1c1.2,0,2.1,0.3,2.8,1c0.7,0.7,1,1.5,1,2.5
		c0,1-0.4,1.9-1.1,2.6c-0.7,0.7-1.6,1-2.8,1c-1.2,0-2.1-0.3-2.8-1C34.5,10.1,34.1,9.3,34.1,8.3z M41.4,40.5h-6.9V14.9h6.9V40.5z"/>
	<path id="XMLID_55_" class="st0" d="M59,30.2l-2.5,2.5v7.8h-6.8V4.1h6.8v20.1l1.3-1.7l6.6-7.7h8.2l-9.2,10.7l10.1,14.9h-7.9
		L59,30.2z"/>
	<path id="XMLID_57_" class="st0" d="M101.3,27.9c0,3.9-0.9,7.1-2.7,9.5c-1.8,2.4-4.2,3.6-7.2,3.6c-2.6,0-4.7-0.9-6.3-2.7v12.1h-6.8
		V14.9h6.3l0.2,2.5c1.7-2,3.8-3,6.5-3c3.2,0,5.6,1.2,7.4,3.5c1.8,2.3,2.6,5.5,2.6,9.6V27.9z M94.4,27.4c0-2.4-0.4-4.2-1.3-5.5
		c-0.8-1.3-2.1-1.9-3.7-1.9c-2.1,0-3.6,0.8-4.4,2.5v10.5c0.8,1.7,2.3,2.5,4.5,2.5C92.8,35.4,94.4,32.7,94.4,27.4z"/>
	<path id="XMLID_60_" class="st0" d="M115.4,40.5h-6.9V4.1h6.9V40.5z"/>
	<path id="XMLID_62_" class="st0" d="M139,37.9c-1.7,2-4,3.1-7,3.1c-2.7,0-4.8-0.8-6.3-2.4c-1.4-1.6-2.2-3.9-2.2-6.9V14.9h6.8v16.6
		c0,2.7,1.2,4,3.6,4c2.3,0,3.9-0.8,4.8-2.4V14.9h6.9v25.6h-6.4L139,37.9z"/>
	<path id="XMLID_64_" class="st0" d="M167.3,33.4c0-0.8-0.4-1.5-1.2-2s-2.2-0.9-4-1.3c-6.1-1.3-9.1-3.9-9.1-7.8
		c0-2.3,0.9-4.2,2.8-5.7c1.9-1.5,4.3-2.3,7.4-2.3c3.2,0,5.8,0.8,7.8,2.3c1.9,1.5,2.9,3.5,2.9,6H167c0-1-0.3-1.8-0.9-2.4
		c-0.6-0.6-1.6-1-3-1c-1.2,0-2,0.3-2.7,0.8c-0.6,0.5-0.9,1.2-0.9,2c0,0.8,0.4,1.4,1.1,1.8c0.7,0.5,1.9,0.9,3.6,1.2
		c1.7,0.3,3.1,0.7,4.3,1.1c3.6,1.3,5.4,3.6,5.4,6.9c0,2.3-1,4.2-3,5.7c-2,1.4-4.6,2.2-7.8,2.2c-2.1,0-4-0.4-5.7-1.1
		c-1.7-0.8-3-1.8-3.9-3.1c-0.9-1.3-1.4-2.8-1.4-4.3h6.5c0.1,1.2,0.5,2.1,1.3,2.8s2,1,3.4,1c1.3,0,2.3-0.2,3-0.7
		S167.3,34.2,167.3,33.4z"/>
</g>
<g id="XMLID_27_">
	<path id="XMLID_28_" class="st0" d="M92.2,53.7l6.2,15.4l6.2-15.4h3.2v18.9h-2.5v-7.4l0.2-8l-6.2,15.3h-1.9l-6.2-15.3l0.2,7.9v7.4
		H89V53.7H92.2z"/>
	<path id="XMLID_30_" class="st0" d="M120.6,72.6c-0.1-0.3-0.3-0.8-0.3-1.5c-1.1,1.2-2.5,1.7-4,1.7c-1.4,0-2.5-0.4-3.4-1.2
		s-1.3-1.8-1.3-3c0-1.5,0.6-2.6,1.7-3.4s2.7-1.2,4.7-1.2h2.3V63c0-0.8-0.3-1.5-0.8-2c-0.5-0.5-1.2-0.7-2.2-0.7
		c-0.9,0-1.6,0.2-2.2,0.7c-0.6,0.4-0.9,1-0.9,1.6h-2.4c0-0.7,0.2-1.4,0.7-2s1.2-1.2,2-1.6c0.9-0.4,1.8-0.6,2.8-0.6
		c1.6,0,2.9,0.4,3.8,1.2c0.9,0.8,1.4,1.9,1.4,3.3v6.5c0,1.3,0.2,2.3,0.5,3.1v0.2H120.6z M116.6,70.8c0.8,0,1.5-0.2,2.1-0.6
		c0.7-0.4,1.2-0.9,1.5-1.5v-2.9h-1.9c-2.9,0-4.4,0.9-4.4,2.6c0,0.8,0.3,1.3,0.8,1.8C115.1,70.5,115.8,70.8,116.6,70.8z"/>
	<path id="XMLID_33_" class="st0" d="M128.6,58.5l0.1,1.8c1.1-1.4,2.5-2,4.2-2c3,0,4.5,1.7,4.5,5v9.3H135v-9.3c0-1-0.2-1.8-0.7-2.2
		s-1.2-0.7-2.1-0.7c-0.8,0-1.5,0.2-2.1,0.6c-0.6,0.4-1,1-1.4,1.6v10h-2.4V58.5H128.6z"/>
	<path id="XMLID_35_" class="st0" d="M149.7,72.6c-0.1-0.3-0.3-0.8-0.3-1.5c-1.1,1.2-2.5,1.7-4,1.7c-1.4,0-2.5-0.4-3.4-1.2
		s-1.3-1.8-1.3-3c0-1.5,0.6-2.6,1.7-3.4s2.7-1.2,4.7-1.2h2.3V63c0-0.8-0.3-1.5-0.8-2c-0.5-0.5-1.2-0.7-2.2-0.7
		c-0.9,0-1.6,0.2-2.2,0.7c-0.6,0.4-0.9,1-0.9,1.6h-2.4c0-0.7,0.2-1.4,0.7-2s1.2-1.2,2-1.6c0.9-0.4,1.8-0.6,2.8-0.6
		c1.6,0,2.9,0.4,3.8,1.2c0.9,0.8,1.4,1.9,1.4,3.3v6.5c0,1.3,0.2,2.3,0.5,3.1v0.2H149.7z M145.7,70.8c0.8,0,1.5-0.2,2.1-0.6
		c0.7-0.4,1.2-0.9,1.5-1.5v-2.9h-1.9c-2.9,0-4.4,0.9-4.4,2.6c0,0.8,0.3,1.3,0.8,1.8C144.3,70.5,145,70.8,145.7,70.8z"/>
	<path id="XMLID_40_" class="st0" d="M155,65.4c0-2.2,0.5-3.9,1.5-5.2c1-1.3,2.4-1.9,4-1.9c1.7,0,3.1,0.6,4,1.8l0.1-1.6h2.2v13.7
		c0,1.8-0.5,3.3-1.6,4.3c-1.1,1-2.5,1.6-4.3,1.6c-1,0-2-0.2-3-0.6c-1-0.4-1.7-1-2.2-1.8l1.2-1.4c1,1.3,2.3,1.9,3.8,1.9
		c1.2,0,2.1-0.3,2.7-1c0.7-0.7,1-1.6,1-2.8v-1.2c-1,1.1-2.3,1.7-3.9,1.7c-1.6,0-3-0.7-4-2C155.5,69.5,155,67.7,155,65.4z
		 M157.4,65.7c0,1.6,0.3,2.8,1,3.7c0.6,0.9,1.6,1.4,2.7,1.4c1.5,0,2.6-0.7,3.3-2.1v-6.4c-0.7-1.3-1.8-2-3.3-2
		c-1.2,0-2.1,0.5-2.7,1.4S157.4,63.9,157.4,65.7z"/>
	<path id="XMLID_43_" class="st0" d="M176.3,72.8c-1.9,0-3.5-0.6-4.7-1.9c-1.2-1.3-1.8-2.9-1.8-5v-0.4c0-1.4,0.3-2.6,0.8-3.7
		c0.5-1.1,1.3-2,2.2-2.6c1-0.6,2-0.9,3.1-0.9c1.8,0,3.2,0.6,4.3,1.8c1,1.2,1.5,2.9,1.5,5.2v1h-9.5c0,1.4,0.4,2.5,1.2,3.4
		s1.8,1.3,3,1.3c0.8,0,1.6-0.2,2.2-0.5c0.6-0.3,1.1-0.8,1.5-1.4l1.5,1.1C180.4,71.9,178.7,72.8,176.3,72.8z M176,60.2
		c-1,0-1.8,0.4-2.4,1.1c-0.7,0.7-1.1,1.7-1.2,3h7v-0.2c-0.1-1.2-0.4-2.2-1-2.8C177.8,60.6,177,60.2,176,60.2z"/>
	<path id="XMLID_46_" class="st0" d="M191.4,60.7c-0.4-0.1-0.8-0.1-1.2-0.1c-1.6,0-2.6,0.7-3.2,2v10h-2.4V58.5h2.3l0,1.6
		c0.8-1.3,1.9-1.9,3.4-1.9c0.5,0,0.8,0.1,1.1,0.2V60.7z"/>
</g>
</svg>
