<?xml version="1.0" encoding="utf-8"?>
<!-- Generator: Adobe Illustrator 19.0.0, SVG Export Plug-In . SVG Version: 6.00 Build 0)  -->
<svg version="1.1" id="Capa_1" xmlns="http://www.w3.org/2000/svg" xmlns:xlink="http://www.w3.org/1999/xlink" x="0px" y="0px"
	 viewBox="0 0 200 200" style="enable-background:new 0 0 200 200;" xml:space="preserve">
<style type="text/css">
	.st0{fill:#00FCF1;}
	.st1{fill:#892B48;}
	.st2{opacity:0.29;}
	.st3{fill:#EAC39D;}
	.st4{fill:#262626;}
</style>
<g id="XMLID_82_">
	<circle id="XMLID_77_" class="st0" cx="99.6" cy="99.6" r="98.5"/>
	<path id="XMLID_2_" class="st1" d="M46.1,182.8c0-28.4,21.7-56.4,48.6-56.4s48.6,33,48.6,61.4c0,0-22.8,12.1-48.6,10.2
		S46.1,182.8,46.1,182.8z"/>
	<path id="XMLID_80_" class="st2" d="M68.9,134.2l36.5,39.4l23.1-26.8c0,0-13.3-20.1-24-24.1C93.9,118.6,68.9,134.2,68.9,134.2z"/>
	<path id="XMLID_78_" class="st3" d="M146,86.5c0,27.6-21.4,63.3-47.9,63.3c-26,0-47.9-35.7-47.9-63.3s21.4-50.1,47.9-50.1
		S146,58.9,146,86.5z"/>
	<path id="XMLID_79_" class="st4" d="M43.3,77c0.3-14.5,9.1-27.3,17.6-39c1-1.5,2.3-3,4-3.3c1.8-0.3,3.8,1.7,2.8,3.2
		c3.5-2.6,7-5.1,10.5-7.7c1.9-1.4,3.8-2.8,6-3.4c2.2-0.6,4.9-0.3,6.4,1.5c1.1,1.2,1.5,2.9,2.2,4.3c0.7,1.4,2.2,2.8,3.8,2.5
		c1.2-0.2,2.1-1.3,2.8-2.3c1.4-2,3.2-4.1,5.6-4.5c2.4-0.4,5.2,2.2,4,4.3c8.3-6.4,18.6-10.2,29.1-10.4c1.3,0,2.6,0,3.7,0.6
		c1.4,0.7,2.2,2.2,2.8,3.7c3.1,6.9,4.5,14.5,4.1,22c3.1-0.6,6.2,1.8,7.4,4.8c1.2,2.9,1,6.3,0.7,9.4c-0.2,2.1-0.8,4.8-2.9,5.1
		c1.5,3.6,2.6,7.4,2,11.2c-0.6,3.8-3.5,7.4-7.3,7.9c-5.5,0.6-9.3-5-12.3-9.6c-2.8-4.1-6.1-8.2-10.6-10.3c-4.5-2.1-10.5-1.7-13.8,2.1
		c-4.1-3.3-8.3-6.7-13.5-7.8c-6.9-1.4-13.8,1.6-20.2,4.6c-4.9,2.3-9.8,4.6-13.8,8.2c-4.9,4.5-8,10.6-12.5,15.5
		c-1.2,1.3-2.9,2.5-4.4,1.9c-1.5-0.6-1.9-2.5-2.1-4.1c-0.5-3.8-1-7.5-1.5-11.3"/>
</g>
</svg>
