<?xml version="1.0" encoding="utf-8"?>
<!-- Generator: Adobe Illustrator 19.0.0, SVG Export Plug-In . SVG Version: 6.00 Build 0)  -->
<svg version="1.1" id="Capa_1" xmlns="http://www.w3.org/2000/svg" xmlns:xlink="http://www.w3.org/1999/xlink" x="0px" y="0px"
	 viewBox="0 0 50 50" style="enable-background:new 0 0 50 50;" xml:space="preserve">
<style type="text/css">
	.st0{fill:#02DDFF;}
</style>
<g id="XMLID_11_">
	<path id="XMLID_4_" class="st0" d="M46.3,23.9c-2.5,0-4.9,0-7.4,0.1c0.4,4.3-1,8.6-4.2,11.9c-5.8,5.8-15.2,5.8-20.9,0
		C8,30.1,8,20.7,13.7,15c4.9-4.9,12.5-5.6,18.2-2.1C30,14.7,27.7,17,27.7,17c-1.6,1.7,0,2.9,1.1,2.9h14.4c0.6,0,1-0.4,1-1V4.6
		c0.1-1.3-1.4-2.6-2.9-1.1c0,0-2.4,2.4-4.1,4.1C28.6,1.2,16.3,1.9,8.5,9.7c-8.7,8.7-8.7,22.7,0,31.4c8.7,8.7,22.7,8.7,31.4,0
		C44.6,36.4,46.7,30.1,46.3,23.9z"/>
</g>
<g id="XMLID_6_">
	<path id="XMLID_3_" class="st0" d="M18.9,28.6v3.1c0,0.6,0.5,1.1,1.1,1.1h8.4c0.6,0,1.1-0.5,1.1-1.1v-3.1H18.9z"/>
	<g id="XMLID_7_">
		<path id="XMLID_2_" class="st0" d="M23.1,22.2H20c-0.6,0-1.1,0.5-1.1,1.1v3.2h4.1V22.2z"/>
		<path id="XMLID_1_" class="st0" d="M28.4,22.2h-3.2v4.2h4.2v-3.2C29.4,22.7,29,22.2,28.4,22.2z"/>
	</g>
</g>
</svg>
